<svg width="1em" height="1em" viewBox="0 0 24 24">
  <g fill="none" fill-rule="evenodd">
    <path
      d="M9,0 C13.9705627,0 18,4.02943725 18,9 C18,13.9705627 13.9705627,18 9,18 C4.02943725,18 0,13.9705627 0,9 C0,4.02943725 4.02943725,0 9,0 Z"
      fill="#F14020"
      transform="translate(3 3)"
    />
    <path
      d="M9,8.00141176 L6.20501937,5.20675098 L6.13961532,5.1494549 C5.84666409,4.9312927 5.45498276,4.95851355 5.20674815,5.20674815 L5.13840166,5.28591844 C4.93336217,5.56225867 4.95614433,5.95441273 5.20674815,6.20501655 L8.00141176,9 L5.20675098,11.7949806 L5.1494549,11.8603847 C4.9312927,12.1533359 4.95851355,12.5450172 5.20674815,12.7932518 L5.28591844,12.8615983 C5.56225867,13.0666378 5.95441273,13.0438557 6.20501655,12.7932518 L9,9.99764706 L11.7949806,12.793249 L11.8603847,12.8505451 C12.1533359,13.0687073 12.5450172,13.0414865 12.7932518,12.7932518 L12.8615983,12.7140816 C13.0666378,12.4377413 13.0438557,12.0455873 12.7932518,11.7949834 L9.99764706,9 L12.793249,6.20501937 L12.8505451,6.13961532 C13.0687073,5.84666409 13.0414865,5.45498276 12.7932518,5.20674815 C12.5175876,4.93108395 12.0706477,4.93108395 11.7949834,5.20674815 L9,8.00141176 Z"
      fill="#FFF"
      transform="translate(3 3)"
    />
  </g>
</svg>