 <svg viewBox="0 0 16 16" width="1em" height="1em">
  <path
    d="M8,3.33333333 C10.6445117,3.33333333 12.6445117,4.88888889 14,8 C12.6445117,11.1111111 10.6445117,12.6666667 8,12.6666667 C5.35548831,12.6666667 3.35548831,11.1111111 2,8 C3.35548831,4.88888889 5.35548831,3.33333333 8,3.33333333 Z M8,5 C6.34314575,5 5,6.34314575 5,8 C5,9.65685425 6.34314575,11 8,11 C9.65685425,11 11,9.65685425 11,8 C11,6.34314575 9.65685425,5 8,5 Z M8,6.33333333 C8.92047458,6.33333333 9.66666667,7.07952542 9.66666667,8 C9.66666667,8.92047458 8.92047458,9.66666667 8,9.66666667 C7.07952542,9.66666667 6.33333333,8.92047458 6.33333333,8 C6.33333333,7.07952542 7.07952542,6.33333333 8,6.33333333 Z"
    fill="currentColor"
    fill-rule="evenodd"
  />
</svg>