<svg viewBox="0 0 20 20" width="1em" height="1em">
  <path
    d="M13.9180962,0.300580656 C14.0722659,0.0192060295 14.4232889,-0.0827774082 14.702128,0.0727942721 C14.980967,0.228365952 15.0820315,0.58258092 14.9278617,0.863955546 C14.3875963,1.84999183 13.7583187,2.67835613 13.0424254,3.34719553 C13.0653643,3.36288383 13.086555,3.38144974 13.1067308,3.40166735 L14.5908285,4.88883642 C14.8367216,5.13523847 14.8387677,5.53366705 14.5953985,5.77875157 C14.3520293,6.02383608 13.9554038,6.022768 13.7095106,5.77636595 L12.225413,4.28919688 C12.1702343,4.23390405 12.1273348,4.1709558 12.0967321,4.10380279 C11.4809057,4.52192083 10.8127519,4.84194901 10.0934577,5.06319474 C10.098055,5.07183983 10.100971,5.08179299 10.1036598,5.09186921 L10.6453415,7.12184423 C10.7350903,7.45818125 10.5376479,7.80425357 10.2043417,7.89481838 C9.87103558,7.9853832 9.52808185,7.78614546 9.43833315,7.44980844 L8.8966514,5.41983341 L8.8823436,5.33525051 C8.43812149,5.40076753 7.97726829,5.43360955 7.5,5.43360955 C7.02308921,5.43360955 6.56256893,5.40081671 6.11865468,5.33539768 L6.10367488,5.41983341 L5.56199313,7.44980844 C5.47224443,7.78614546 5.1292907,7.9853832 4.79598453,7.89481838 C4.46267837,7.80425357 4.26523603,7.45818125 4.35498473,7.12184423 L4.35498473,7.12184423 L4.89666648,5.09186921 C4.89935523,5.08179299 4.90227124,5.07183983 4.90540744,5.06201382 C4.18686007,4.84182965 3.51837333,4.52157549 2.90222761,4.10331802 C2.8726562,4.17034447 2.8296083,4.23363563 2.77416181,4.28919688 L2.77416181,4.28919688 L1.29006414,5.77636595 C1.04417097,6.022768 0.647545457,6.02383608 0.404176257,5.77875157 C0.160807057,5.53366705 0.162853137,5.13523847 0.408746304,4.88883642 L0.408746304,4.88883642 L1.89284397,3.40166735 C1.91333507,3.38113384 1.93487292,3.36230405 1.9572816,3.34517843 C1.24168127,2.67835613 0.612403734,1.84999183 0.0721382966,0.863955546 C-0.082031471,0.58258092 0.019032957,0.228365952 0.297872015,0.0727942721 C0.576711072,-0.0827774082 0.927734081,0.0192060295 1.08190385,0.300580656 C2.54138905,2.96428126 4.65761052,4.2692876 7.5,4.2692876 C10.3423895,4.2692876 12.4586109,2.96428126 13.9180962,0.300580656 Z"
    transform="translate(2.5 6.041667)"
    fill="currentColor"
    fill-rule="evenodd"
  />
</svg>