<svg viewBox="0 0 16 16" width="1em" height="1em">
  <path
    d="M6,0 C9.3137085,0 12,2.6862915 12,6 C12,9.3137085 9.3137085,12 6,12 C2.6862915,12 0,9.3137085 0,6 C0,2.6862915 2.6862915,0 6,0 Z M6,1 C3.23857625,1 1,3.23857625 1,6 C1,8.76142375 3.23857625,11 6,11 C8.76142375,11 11,8.76142375 11,6 C11,3.23857625 8.76142375,1 6,1 Z M6,4.66984537 C6.25313051,4.66984537 6.46232731,4.85794795 6.49543559,5.10199833 L6.5,5.16984537 L6.5,8.83351892 C6.5,9.10966129 6.27614237,9.33351892 6,9.33351892 C5.74686949,9.33351892 5.53767269,9.14541633 5.50456441,8.90136596 L5.5,8.83351892 L5.5,5.16984537 C5.5,4.89370299 5.72385763,4.66984537 6,4.66984537 Z M6,2.66666667 C6.37816251,2.66666667 6.66666667,2.95517083 6.66666667,3.33333333 C6.66666667,3.70816699 6.37661312,4 6,4 C5.62672717,4 5.33333333,3.70660617 5.33333333,3.33333333 C5.33333333,2.95672021 5.62516635,2.66666667 6,2.66666667 Z"
    transform="translate(2 2)"
    fill="currentColor"
    fill-rule="evenodd"
  />
</svg>