 <svg viewBox="0 0 24 24" width="1em" height="1em">
  <g fill="none" fill-rule="evenodd">
    <path
      d="M9,0 C13.9705627,0 18,4.02943725 18,9 C18,13.9705627 13.9705627,18 9,18 C4.02943725,18 0,13.9705627 0,9 C0,4.02943725 4.02943725,0 9,0 Z"
      fill="currentColor"
      transform="translate(3 3)"
    />
    <path
      d="M9,7.00476805 C9.37969577,7.00476805 9.69349096,7.28692193 9.74315338,7.65299749 L9.75,7.75476805 L9.75,13.2502784 C9.75,13.6644919 9.41421356,14.0002784 9,14.0002784 C8.62030423,14.0002784 8.30650904,13.7181245 8.25684662,13.3520489 L8.25,13.2502784 L8.25,7.75476805 C8.25,7.34055449 8.58578644,7.00476805 9,7.00476805 Z M9,4 C9.56724376,4 10,4.43275624 10,5 C10,5.56225048 9.56491969,6 9,6 C8.44009075,6 8,5.55990925 8,5 C8,4.43508031 8.43774952,4 9,4 Z"
      fill="#FFF"
      transform="translate(3 3)"
    />
  </g>
</svg>