<svg viewBox="0 0 20 20" width="1em" height="1em">
  <path
    d="M13,0 C13.5522847,0 14,0.482154885 14,1.07692308 L14,12.9230769 C14,13.5178451 13.5522847,14 13,14 L1,14 C0.44771525,14 0,13.5178451 0,12.9230769 L0,1.07692308 C0,0.482154885 0.44771525,0 1,0 L13,0 Z M12.5,1.5 L1.5,1.5 L1.5,12.5 L12.5,12.5 L12.5,1.5 Z M7.00588405,3 C7.31378037,3 7.5215461,3.11786803 7.64463236,3.35838785 L7.64463236,3.35838785 L10.9204076,9.94240212 L10.9652319,10.0514641 C11.0127918,10.197695 11.0115379,10.3474278 10.9615949,10.5035758 C10.8999422,10.6894322 10.7811064,10.8259171 10.601284,10.9162737 C10.4959002,10.9727183 10.3907047,11 10.2821604,11 C9.97606106,11 9.76446138,10.8683609 9.63265711,10.5964753 L9.63265711,10.5964753 L9.02088989,9.35374816 L4.98031419,9.35374816 L4.36802794,10.5952234 L4.30845485,10.6964987 C4.22161378,10.8217668 4.10494404,10.9081641 3.95619463,10.9579928 C3.76296809,11.020403 3.57871931,11.0066874 3.39878314,10.9162737 C3.21896069,10.8259171 3.10012495,10.6894322 3.03814602,10.5025744 C2.97604341,10.3083909 2.98969147,10.1232295 3.07965955,9.94240212 L3.07965955,9.94240212 L6.35593588,3.35739477 L6.40606346,3.27334111 C6.53291419,3.09043877 6.72945526,3 7.00588405,3 Z M7.00003355,5.29323721 L5.71282809,7.90347869 L8.2759183,7.90347869 L7.00003355,5.29323721 Z"
    transform="translate(3 3)"
    fill="currentColor"
    fill-rule="evenodd"
  />
</svg>