 <svg viewBox="0 0 20 20" width="1em" height="1em">
  <path
    d="M7.10092456,5.57628193 C7.33493759,5.91805785 7.24757851,6.38482701 6.90580259,6.61884004 C5.41174419,7.64181771 4.5,9.33553419 4.5,11.1855178 C4.5,14.2362952 6.96304688,16.7083333 10,16.7083333 C13.0369531,16.7083333 15.5,14.2362952 15.5,11.1855178 C15.5,9.33985387 14.5925447,7.64960663 13.1042375,6.62573074 C12.7629793,6.39096334 12.6766514,5.92400235 12.9114188,5.58274417 C13.1461862,5.24148599 13.6131472,5.15515816 13.9544054,5.38992555 C15.8456149,6.69097665 17,8.84116113 17,11.1855178 C17,15.0635012 13.8666063,18.2083333 10,18.2083333 C6.13339375,18.2083333 3,15.0635012 3,11.1855178 C3,8.83566317 4.1598329,6.68108064 6.05836645,5.38115996 C6.40014237,5.14714693 6.86691154,5.23450601 7.10092456,5.57628193 Z M10,3 C10.4142136,3 10.75,3.33578644 10.75,3.75 L10.75,8.25 C10.75,8.66421356 10.4142136,9 10,9 C9.58578644,9 9.25,8.66421356 9.25,8.25 L9.25,3.75 C9.25,3.33578644 9.58578644,3 10,3 Z"
    fill="currentColor"
    fill-rule="evenodd"
  />
</svg>