 <svg width="1em" height="1em" viewBox="0 0 24 24">
  <path
    d="M8,0 C12.418278,0 16,3.581722 16,8 C16,9.93903108 15.3101489,11.7169388 14.1624873,13.1016827 L17.7803301,16.7196699 C18.0732233,17.0125631 18.0732233,17.4874369 17.7803301,17.7803301 C17.5140635,18.0465966 17.0973998,18.0708027 16.8037883,17.8529482 L16.7196699,17.7803301 L13.1016827,14.1624873 C11.7169388,15.3101489 9.93903108,16 8,16 C3.581722,16 0,12.418278 0,8 C0,3.581722 3.581722,0 8,0 Z M8,1.5 C4.41014913,1.5 1.5,4.41014913 1.5,8 C1.5,11.5898509 4.41014913,14.5 8,14.5 C11.5898509,14.5 14.5,11.5898509 14.5,8 C14.5,4.41014913 11.5898509,1.5 8,1.5 Z"
    transform="translate(3 3)"
    fill="currentColor"
    fill-rule="evenodd"
  />
</svg>