<svg viewBox="0 0 24 24" width="1em" height="1em">
  <g fill="none" fill-rule="evenodd">
    <path
      d="M9,0 C13.9705627,0 18,4.02943725 18,9 C18,13.9705627 13.9705627,18 9,18 C4.02943725,18 0,13.9705627 0,9 C0,4.02943725 4.02943725,0 9,0 Z"
      fill="#0FC17E"
      transform="translate(3 3)"
    />
    <path
      d="M12.686259,5.75533239 C12.9594564,5.44398681 13.4333221,5.41306159 13.7446676,5.68625897 C14.0277091,5.93462022 14.0789981,6.34882305 13.880727,6.65599863 L13.813741,6.74466761 L8.30384851,12.7446676 C8.04135263,13.0438174 7.59700026,13.0819934 7.28888027,12.849222 L7.20846419,12.7790136 L4.21835673,9.77901363 C3.92619057,9.48539515 3.92736791,9.01052288 4.22098638,8.71835672 C4.48791227,8.45275112 4.90463469,8.42957816 5.19770516,8.64815989 L5.2816433,8.72098637 L7.70500001,11.152 L12.686259,5.75533239 Z"
      fill="#FFF"
      transform="translate(3 3)"
    />
  </g>
</svg>