<svg viewBox="0 0 32 32" width="1em" height="1em">
  <g fill="none" fill-rule="evenodd">
    <path
      fill="#61728F"
      d="M14 0A14 14 0 1 0 14 28A14 14 0 1 0 14 0Z"
      transform="translate(2 2)"
    />
    <path
      d="M14.0305481,7 C16.8622455,7 18.709276,8.99197358 18.709276,12.0895977 C18.709276,14.91141 17.752689,17.157563 16.4797355,18.0456888 C15.8650511,18.4703726 16.4797355,19.8773487 17.2334927,20.1555556 C17.4027535,20.2180286 17.5993942,20.2992749 17.8167325,20.39596 L17.8167325,20.39596 L18.2770256,20.6089274 C18.3576805,20.6475234 18.4401402,20.687588 18.5241571,20.7289974 L18.5241571,20.7289974 L19.0449653,20.9926054 C19.2234769,21.0851959 19.4062374,21.1821781 19.5912668,21.2825641 L19.5912668,21.2825641 L20.1511818,21.5929457 C20.2449755,21.6460485 20.3388413,21.6997553 20.4325319,21.7539426 L20.4325319,21.7539426 L20.9905922,22.0838437 C22.1865859,22.8068404 23.2693045,23.5692937 23.6949927,24.0998826 L23.6949927,24.0998826 C21.1765367,26.5165549 17.7615069,28 14,28 C10.2384931,28 6.82346328,26.5165549 4.30803023,24.1027842 L4.30097809,24.0960123 L4.38245505,24.0004238 C4.92734142,23.3986683 6.14987333,22.5623981 7.44639785,21.8059535 L7.44639785,21.8059535 L8.00482146,21.4875666 C9.03045031,20.9161777 10.0485207,20.4217914 10.7662256,20.1568809 C11.5223816,19.8777778 12.1334927,18.4703726 11.6013285,18.0601103 C10.2528714,17.1894106 9.34183612,14.6734548 9.34183612,12.0895977 C9.34183612,9.01420677 11.1551708,7 14.0305481,7 Z"
      fill="#EEF0F4"
      transform="translate(2 2)"
    />
  </g>
</svg>