<svg viewBox="0 0 48 48" width="1em" height="1em">
  <path
    d="M18,0 C27.9411255,0 36,8.0588745 36,18 C36,27.9411255 27.9411255,36 18,36 C8.0588745,36 0,27.9411255 0,18 C0,8.0588745 8.0588745,0 18,0 Z M18,24.0005568 C16.8801815,24.0005568 16,24.8807383 16,26.0005568 C16,27.1303961 16.875499,28.0005568 18,28.0005568 C19.1344875,28.0005568 20,27.1350443 20,26.0005568 C20,24.8760558 19.1298394,24.0005568 18,24.0005568 Z M18,8 C17.2406085,8 16.6130181,8.56430776 16.5136932,9.29645889 L16.5,9.5 L16.5,20.4910207 C16.5,21.3194478 17.1715729,21.9910207 18,21.9910207 C18.7593915,21.9910207 19.3869819,21.4267129 19.4863068,20.6945618 L19.5,20.4910207 L19.5,9.5 C19.5,8.67157288 18.8284271,8 18,8 Z"
    transform="translate(6 6)"
    fill="#FB7408"
    fill-rule="evenodd"
  />
</svg>